<svg xmlns="http://www.w3.org/2000/svg" width="286" height="160" viewBox="0 0 286 160"><rect width="100%" height="100%" fill="#DDDDDD"/><path fill="#999999" d="M67.975 89.37h7.05q.76 0 1.2.43.45.42.45 1.13v2.81h-18.85v-1.56q0-.47.2-1 .2-.52.64-.94l8.34-8.36q1.04-1.06 1.87-2.03.83-.97 1.38-1.92.55-.95.84-1.93.3-.97.3-2.06 0-.99-.29-1.74-.28-.75-.81-1.26-.52-.51-1.25-.77t-1.64-.26q-.84 0-1.55.24-.71.24-1.27.67-.55.42-.93.99-.38.57-.57 1.26-.32.87-.83 1.16-.52.28-1.48.13l-2.47-.44q.28-1.97 1.1-3.46.81-1.5 2.04-2.49 1.23-1 2.81-1.5 1.59-.51 3.41-.51 1.9 0 3.48.56t2.7 1.59q1.12 1.02 1.75 2.47.62 1.44.62 3.21 0 1.52-.44 2.81-.45 1.29-1.2 2.47-.75 1.18-1.76 2.28-1.01 1.1-2.11 2.24l-6.19 6.33q.89-.26 1.77-.41.89-.14 1.69-.14Zm21.47 1.01q1.15 0 2.03-.34.87-.33 1.47-.92.6-.59.9-1.4.31-.82.31-1.77 0-2.26-1.26-3.42-1.25-1.16-3.45-1.16-2.21 0-3.46 1.16-1.26 1.16-1.26 3.42 0 .95.31 1.77.3.81.9 1.4.6.59 1.47.92.88.34 2.04.34Zm0-20.88q-1.05 0-1.81.32t-1.26.86q-.51.54-.74 1.25-.24.7-.24 1.48 0 .82.2 1.59.2.77.67 1.36.48.6 1.26.96.78.37 1.92.37t1.91-.37q.78-.36 1.26-.96.47-.59.67-1.36.2-.77.2-1.59 0-.78-.24-1.48-.25-.71-.75-1.25-.49-.54-1.25-.86-.76-.32-1.8-.32Zm4.63 9.91q2.51.82 3.71 2.5 1.19 1.68 1.19 4.12 0 1.82-.69 3.3-.69 1.48-1.95 2.53-1.25 1.04-3.01 1.61-1.76.57-3.88.57-2.13 0-3.89-.57-1.76-.57-3.01-1.61-1.26-1.05-1.95-2.53-.69-1.48-.69-3.3 0-2.44 1.19-4.12 1.2-1.68 3.71-2.5-2-.83-2.99-2.37-1-1.54-1-3.71 0-1.55.64-2.9.63-1.35 1.77-2.35 1.14-1 2.73-1.56t3.49-.56q1.9 0 3.48.56 1.59.56 2.73 1.56t1.78 2.35q.63 1.35.63 2.9 0 2.17-1 3.71-.99 1.54-2.99 2.37Zm24.45-13.14-8.15 9.97-.95 1.18q.8-.4 1.72-.62.92-.22 1.99-.22 1.56 0 3.03.52 1.47.51 2.59 1.54 1.12 1.04 1.81 2.58.68 1.54.68 3.59 0 1.92-.7 3.6-.7 1.68-1.98 2.94-1.27 1.25-3.07 1.97-1.79.72-3.96.72-2.2 0-3.95-.7t-2.98-1.97q-1.24-1.26-1.89-3.04-.66-1.77-.66-3.94 0-1.94.79-3.98t2.44-4.24l6.56-8.8q.34-.46.99-.78.66-.32 1.51-.32h4.18Zm-7.08 23.94q1.12 0 2.06-.38t1.61-1.07q.68-.68 1.06-1.6t.38-2.01q0-1.18-.36-2.12-.36-.94-1.03-1.59-.66-.66-1.59-1-.94-.34-2.06-.34t-2.03.38q-.91.38-1.56 1.05-.64.68-1 1.6-.37.92-.37 1.98 0 1.14.32 2.08.31.95.93 1.61.62.67 1.53 1.04t2.11.37Zm40.28-2.76-2.49 2.45-6.44-6.44-6.5 6.48-2.49-2.45 6.5-6.52-6.2-6.19 2.47-2.47 6.2 6.19 6.15-6.15 2.51 2.47-6.17 6.17 6.46 6.46Zm26.01 2.77h4.94v3.52h-15.2v-3.52h5.57V74.21q0-.95.05-1.96l-3.95 3.31q-.34.26-.67.33-.34.07-.63.01-.3-.06-.52-.2-.23-.14-.35-.31l-1.48-2.04 8.38-7.12h3.86v23.99Zm25.38-23.95-8.15 9.97-.95 1.18q.8-.4 1.72-.62.92-.22 1.99-.22 1.55 0 3.03.52 1.47.51 2.59 1.54 1.12 1.04 1.81 2.58.68 1.54.68 3.59 0 1.92-.7 3.6-.71 1.68-1.98 2.94-1.27 1.25-3.07 1.97-1.79.72-3.96.72-2.2 0-3.95-.7t-2.98-1.97q-1.24-1.26-1.89-3.04-.66-1.77-.66-3.94 0-1.94.79-3.98t2.44-4.24l6.55-8.8q.35-.46 1-.78.66-.32 1.51-.32h4.18Zm-7.08 23.94q1.12 0 2.06-.38t1.61-1.07q.68-.68 1.06-1.6t.38-2.01q0-1.18-.36-2.12-.37-.94-1.03-1.59-.67-.66-1.6-1-.93-.34-2.05-.34-1.12 0-2.03.38-.91.38-1.56 1.05-.65.68-1.01 1.6t-.36 1.98q0 1.14.32 2.08.31.95.93 1.61.61.67 1.53 1.04.91.37 2.11.37ZM228.175 80q0 3.59-.77 6.24-.76 2.66-2.12 4.38-1.36 1.73-3.21 2.58-1.86.84-4 .84-2.15 0-3.98-.84-1.84-.85-3.19-2.58-1.35-1.72-2.11-4.38-.76-2.65-.76-6.24 0-3.61.76-6.25t2.11-4.37q1.35-1.73 3.19-2.57 1.83-.85 3.98-.85 2.14 0 4 .85 1.85.84 3.21 2.57 1.36 1.73 2.12 4.37.77 2.64.77 6.25Zm-4.84 0q0-2.98-.44-4.94-.44-1.95-1.17-3.11t-1.68-1.63q-.95-.46-1.97-.46-1.01 0-1.95.46-.94.47-1.66 1.63-.73 1.16-1.15 3.11-.43 1.96-.43 4.94 0 2.99.43 4.94.42 1.96 1.15 3.12.72 1.16 1.66 1.62.94.47 1.95.47 1.02 0 1.97-.47.95-.46 1.68-1.62.73-1.16 1.17-3.12.44-1.95.44-4.94Z"/></svg>